<svg xmlns="http://www.w3.org/2000/svg" viewBox="0 0 100 100" width="1024" height="1024">
  <rect width="100" height="100" rx="18" fill="#FFFFFF"/>
  <g transform="rotate(45,50,50)" fill="#111111">
    <rect x="46" y="18" width="8" height="64" rx="2"/>
    <rect x="38" y="18" width="24" height="10" rx="3"/>
    <rect x="38" y="72" width="24" height="10" rx="3"/>
    <rect x="35" y="21" width="10" height="7" rx="2"/>
    <rect x="55" y="21" width="10" height="7" rx="2"/>
    <rect x="35" y="72" width="10" height="7" rx="2"/>
    <rect x="55" y="72" width="10" height="7" rx="2"/>
  </g>
  <g transform="rotate(-45,50,50)" fill="#111111">
    <rect x="46" y="18" width="8" height="64" rx="2"/>
    <rect x="38" y="18" width="24" height="10" rx="3"/>
    <rect x="38" y="72" width="24" height="10" rx="3"/>
    <rect x="35" y="21" width="10" height="7" rx="2"/>
    <rect x="55" y="21" width="10" height="7" rx="2"/>
    <rect x="35" y="72" width="10" height="7" rx="2"/>
    <rect x="55" y="72" width="10" height="7" rx="2"/>
  </g>
</svg>
